<?xml version="1.0" encoding="utf-8" ?><svg xmlns="http://www.w3.org/2000/svg" xmlns:xlink="http://www.w3.org/1999/xlink" width="1024" height="1024" viewBox="0 0 1024 1024"><path transform="scale(2 2)" d="M283.974 211.556C283.938 194.22 279.999 192.189 291.511 180.797L314.123 158.773C326.44 146.633 341.619 131.641 332.127 112.132C330.566 107.795 322.824 99.9049 334.385 98.3163C340.158 98.8631 359.133 146.282 362.038 153.94C369.943 174.774 372.071 189.271 374.321 211.496C377.545 215.31 372.72 200.849 381.022 198.966L381.358 198.893C385.291 199.555 395.863 203.813 400.165 205.417L418.178 212.282C421.424 213.543 426.525 215.423 429.485 217.055C422.843 220.413 411.731 224.377 404.651 227.163L391.966 232.169C369.502 241.093 378.858 226.783 374.937 222.466C374.322 222.68 374.413 222.715 374.352 223.478C371.07 268.441 359.292 287.395 342.614 327.803C340.494 332.939 340.303 337.708 334.385 339.362C322.886 336.138 334.477 323.612 334.727 316.57C335.318 299.981 324.712 289.445 313.906 278.768L297.586 262.671C293.081 258.284 288.101 253.643 283.974 248.937C275.75 252.599 269.49 251.504 260.581 251.501L227.779 251.487L227.771 278.629C227.762 296.427 229.337 301.949 233.179 319.149L245.353 371.823C246.937 378.717 249.182 386.022 250.301 392.925C252.004 405.081 240.236 414.464 228.714 410.394C221.123 407.713 218.719 399.291 215.493 392.514C206.975 374.614 198.194 356.761 189.927 338.748C184.88 338.452 177.276 338.736 171.967 338.748C169.156 338.639 167.21 338.581 164.382 338.748C153.936 360.129 144.745 382.272 134.115 403.598C129.504 412.849 116.719 413.571 109.759 406.584C102.945 399.745 105.229 392.424 106.917 383.997L119.647 324.379C123.25 307.909 125.598 299.844 125.602 282.971L125.59 259.479C115.168 261.081 104.523 264.317 94.997 258.301C82.6666 250.514 80.8697 233.506 91.0144 223.188C102.705 211.299 123.713 195.336 139.471 192.156C135.326 180.599 135.92 174.116 136.18 162.218C136.508 147.243 134.23 133.389 142.88 120.122C166.463 83.9508 219.428 99.9496 220.342 142.504C220.531 151.304 221.148 169.976 219.02 177.204C217.679 181.703 214.916 185.113 212.435 188.97C229.477 196.413 236.84 199.925 251.806 211.556L283.974 211.556ZM176.144 110.843C158.715 112.871 146.928 127.122 146.712 144.178C146.258 154.636 144.844 179.253 149.051 187.411C150.97 191.13 158.162 197.41 150.281 201.24C148.261 202.221 143.552 201.724 141.3 202.537C134.19 203.969 121.267 210.329 116.861 216.105C129.473 213.02 155.775 210.995 169.19 210.53C177.103 209.379 181.455 206.236 188.87 205.136C189.36 202.717 189.711 201.234 190.465 198.893C179.03 192.656 167.783 182.558 166.721 168.762C166.379 164.31 165.665 146.053 167.422 142.636C169.968 137.683 177.52 139.98 177.168 146.477L209.715 146.477C209.804 142.334 209.924 138.777 208.829 134.686C205.235 121.258 190.699 108.636 176.144 110.843ZM342.904 137.133C336.505 157.044 309.451 177.329 294.531 193.011C294.412 198.931 294.872 205.84 294.531 211.556L315.125 211.556L363.288 211.556C362.051 188.486 357.279 168.549 347.965 147.393C347.188 145.629 344.155 138.257 342.904 137.133ZM177.168 156.817C176.813 173.744 179.103 180.209 194.01 188.97C197.038 187.035 200.458 184.815 203.162 182.48C208.733 176.992 209.664 172.53 209.72 164.823L209.715 156.817L177.168 156.817ZM202.232 197.135C201.198 199.716 199.651 203.557 199.037 206.219C202.517 207.871 204.959 208.738 207.677 211.556L230.812 211.556C231.691 211.568 232.586 211.592 233.461 211.556C226.427 206.915 210.33 198.817 202.232 197.135ZM387.684 211.556C387.55 215.388 387.692 218.656 387.684 222.428C391.603 221.441 393.866 220.53 397.573 218.935C398.853 218.366 400.428 217.72 401.635 217.055C397.275 215.488 391.842 213.535 387.684 211.556ZM189.927 216.105C186.543 216.335 187.458 217.259 187.9 220.407C188.769 226.585 189.346 232.869 190.465 239.005C192.749 238.322 195.638 237.394 197.748 236.274C204.446 231.74 204.984 215.172 189.927 216.105ZM176.144 220.919C170.986 220.605 166.14 221.283 161.003 221.765L116.965 225.968C111.952 226.485 102.846 226.604 99.2666 230.034C92.8789 236.155 93.6179 244.967 101.039 249.776C107.907 253.117 117.969 249.908 125.553 248.762L158.273 243.995C164.851 243.01 173.301 241.43 179.76 240.957L177.267 220.852L176.919 220.645L176.144 220.919ZM212.435 222.428L212.435 228.504C216.416 228.493 220.483 228.44 224.457 228.504C228.516 232.567 227.19 235.419 227.779 240.957L260.187 240.966C266.668 240.965 275.598 242.506 280.814 238.124C285.451 232.125 282.829 223.049 275.256 222.642C268.126 222.259 260.826 222.425 253.674 222.423L212.435 222.428ZM292.329 222.428C294.901 229.925 295.328 235.221 291.578 242.369L314.904 264.999C328.317 278.033 335.621 283.411 342.904 301.602C344.62 297.42 346.921 292.244 348.409 288.065C356.379 267.408 363.544 244.848 363.288 222.428L292.329 222.428ZM209.715 239.005C199.613 249.624 192.299 249.356 178.224 251.596L157.964 254.736C151.835 255.647 142.158 257.415 136.178 257.842L136.187 282.805C136.182 298.24 135.175 302.046 132.217 316.696C137.753 319.748 143.416 322.664 149.544 324.396C178.6 333.532 196.346 328.409 222.219 316.696C217.369 298.718 217.494 297.176 217.509 278.479L217.507 239.005L209.715 239.005ZM224.457 327.529C214.568 332.519 211.259 333.775 200.506 336.622C203.478 343.732 207.438 351.722 210.795 358.712L226.38 391.437C228.651 396.19 234.361 407.766 239.611 397.206C240.965 394.484 236.125 377.924 235.286 374.378L229.981 351.16C228.171 343.536 225.991 335.171 224.457 327.529ZM129.774 327.529L117.422 384.367C116.342 389.24 112.887 399.283 120.212 400.778C125.025 401.76 127.518 393.282 129.774 389.863C130.813 383.802 150.132 344.776 153.789 336.622C144.093 334.069 138.806 332.056 129.774 327.529Z"/></svg>