<?xml version="1.0" encoding="utf-8" ?><svg xmlns="http://www.w3.org/2000/svg" xmlns:xlink="http://www.w3.org/1999/xlink" width="1024" height="1024" viewBox="0 0 1024 1024"><path transform="scale(2 2)" d="M353.711 169.077C353.834 150.149 350.58 123.349 348.598 104.09C348.038 99.0687 358.423 84.1024 362.262 82.5177C366.182 82.3264 378.592 95.8335 378.967 97.211C380.841 104.09 381.365 115.287 382.509 122.398C384.431 134.344 385.883 146.208 387.734 157.948C391.06 157.196 397.755 154.642 401.269 153.402L423.009 145.821C426.252 144.672 432.584 141.684 436.032 142.41C439.778 143.199 441.243 149.59 437.404 151.653C434.141 153.407 430.211 154.562 426.626 155.817L406.203 162.903C401.04 164.643 394.22 166.648 389.579 169.077C396.242 203.923 383.179 209.361 353.287 220.044L353.287 292.912C365.426 299.494 377.685 307.486 389.833 314.174C400.833 320.204 403.967 325.331 407.015 336.966C412.347 357.315 417.225 377.789 422.721 398.096C433.38 401.74 447.865 413.786 442.105 425.522C439.568 430.69 423.017 428.739 417.927 429.022C397.989 430.13 395.811 426.683 390.141 409.13L384.397 391.381C381.825 383.636 375.969 368.666 374.529 361.145C360.387 353.944 345.402 343.468 331.106 336.669C327.58 340.626 313.352 352.467 308.502 352.417C302.225 352.353 289.326 340.788 284.934 336.669C279.743 339.378 274.338 342.769 269.281 345.762L245.297 359.781C245.146 370.074 245.464 382.667 245.805 392.921C246.171 403.923 250.576 426.11 234.596 428.611C230.645 429.229 199.392 429.429 196.324 428.761C191.428 427.695 193.835 418.529 194.833 415.459C197.055 408.625 201.616 404.272 207.888 401.036L211.526 399.187C212.315 386.223 211.18 363.127 210.201 349.783C208.155 321.902 215.104 321.362 235.524 309.122L252.316 298.992C255.585 297.022 259.606 294.435 263.029 292.912L263.029 237.846C249.894 251.125 245.679 252.308 228.475 254.576L200.974 257.934C189.109 259.345 173.021 265.435 168.865 251.334C159.472 257.091 139.052 259.776 131.812 264.786C125.033 269.477 113.105 283.005 107.427 285.624C104.116 285.381 74.5847 281.396 71.7132 279.977C68.3753 278.185 69.4555 273.918 71.9818 272.129C77.6924 268.084 91.7038 252.769 97.423 250.813C104.588 250.491 112.565 251.946 119.72 252.715C131.694 254.002 129.447 253.902 141.109 250.142C149.57 247.413 157.955 244.364 166.417 241.657C167.281 231.434 173.477 230.767 181.609 228.201L197.51 223.213C207.916 219.917 219.029 215.825 229.465 212.833C233.054 200.41 241.918 183.138 255.1 178.718C260.232 176.997 265.94 175.825 271.237 174.129C261.558 149.785 273.104 121.438 298.486 112.854C300.929 108.975 302.818 104.852 307.683 104.066C313.276 104.837 313.234 109.27 316.807 112.426C319.008 114.142 321.96 114.974 324.371 116.393C343.901 127.897 350.188 152.765 341.497 172.939C344.683 172.377 350.239 170.165 353.711 169.077ZM363.682 97.0524L358.862 104.066C359.251 106.509 359.528 108.637 359.795 111.091L365.295 111.091L370.358 111.091C370.084 108.486 369.595 104.722 369.088 102.139C367.974 101.02 364.807 97.8174 363.682 97.0524ZM307.683 119.135C301.387 126.877 286.672 122.759 280.239 145.811C302.17 152.486 302.826 147.079 321.713 146.295C327.209 146.068 328.233 154.483 323.003 156.045C316.968 157.978 310.27 159.171 303.978 159.83L303.978 164.14C303.977 171.497 303.899 178.987 303.978 186.332C311.687 184.688 324.369 181.321 328.857 174.337C338.843 158.793 335.915 136.067 319.659 125.898C315.613 123.368 311.205 122.552 307.683 119.135ZM360.705 121.677C361.843 135.487 364.2 151.846 364.073 165.587C367.531 164.567 371.395 162.913 374.529 162.05C375.613 161.834 376.62 161.623 377.719 161.479C375.607 148.865 372.833 134.308 371.655 121.677L360.705 121.677ZM278.411 156.378C278.239 158.299 278.316 159.539 278.411 161.479C284.213 163.848 287.808 163.873 293.315 165.587C293.384 163.535 293.45 161.87 293.315 159.83L278.411 156.378ZM379.196 171.804C374.993 173.056 369.395 174.798 365.295 176.345C365.484 179.768 366.242 182.515 366.713 185.834C367.619 192.229 359.355 195.725 355.787 186.332C351.462 186.03 349.125 184.821 345.244 182.996C338.655 185.009 330.703 188.32 324.022 190.657L273.743 208.327L273.743 263.223L273.743 271.806L342.336 271.806L342.325 235.288C342.323 229.072 342.27 222.903 342.412 216.661C342.53 211.481 346.559 211.547 350.499 209.815C363.687 204.017 379.899 202.157 381.102 185.705C381.247 183.73 379.915 172.72 379.196 171.804ZM282.353 174.129C284.894 177.346 289.216 181.922 293.315 182.996C293.323 180.795 293.356 178.542 293.315 176.345C289.585 175.752 286.008 174.525 282.353 174.129ZM276.017 184.013C260.95 188.944 247.528 189.303 243.191 208.327C246.207 207.013 248.494 205.918 251.664 204.763C262.214 200.656 276.606 195.006 287.441 191.988C285.928 191.173 276.048 184.011 276.017 184.013ZM263.029 212.833C260.975 213.29 259.03 213.78 257.039 214.471C236.743 221.516 215.164 229.561 194.646 235.555L197.193 246.214C197.969 248.625 202.464 246.85 205.208 246.493C214.018 245.346 237.988 244.375 244.984 239.561C251.209 235.278 256.838 228.63 263.029 224.45C263.027 220.942 263.286 216.14 263.209 212.887L263.029 212.833ZM183.068 239.023C180.297 239.789 179.634 240.089 177.159 241.657C177.67 242.944 179.646 249.549 180.046 249.997L180.76 250.03C183.002 249.653 184.474 249.828 186.734 250.03C186.338 248.351 184.525 240.115 183.699 239.008L183.068 239.023ZM100.501 261.471C96.5384 264.9 92.5659 268.319 88.6544 271.806C90.4775 272.151 104.104 274.408 104.989 274.069C108.834 270.287 113.026 266.882 116.933 263.223L100.501 261.471ZM284.934 282.444C281.303 282.442 277.346 282.357 273.743 282.444C272.024 307.484 286.247 329.027 308.318 340.599C313.445 337.881 317.591 334.661 321.755 330.668C336.331 316.446 342.977 302.872 342.336 282.444L284.934 282.444ZM264.487 304.453C257.596 308.894 249.777 312.86 243.191 317.385C247.878 324.391 253.026 330.975 257.637 338.139L258.267 339.043C259.6 339.026 275.003 329.875 277.16 328.508C272.756 322.116 268.846 316.174 266.286 308.741C265.961 307.794 265.213 304.659 264.487 304.453ZM350.891 304.453C347.671 315.464 343.53 319.544 338.704 328.508C342.477 329.823 357.767 339.768 359.817 339.113L360.705 338.139C362.831 332.899 370.183 322.102 373.39 317.385C367.981 313.863 356.693 306.897 350.891 304.453ZM233.564 322.554C217.712 331.602 220.149 333.156 220.779 349.521L222.304 388.703C222.429 392.695 222.993 402.047 222.432 405.635C216.917 410.819 210.148 409.405 205.578 417.987L205.485 418.166C210.55 418.221 215.634 418.181 220.701 418.166C226.862 418.215 235.581 420.571 235.586 411.791C235.595 397.496 232.523 366.528 234.654 353.932C237.313 351.552 245.52 347.529 249.183 345.182C247.973 343.106 234.184 323.056 233.564 322.554ZM382.479 322.554C378.92 329.997 371.601 338.034 369.088 345.182L369.453 345.453C382.811 355.309 380.869 347.993 386.789 365.223L398.473 400.162C400.064 404.882 402.56 414.581 405.435 418.166C409.353 418.334 413.557 418.152 417.507 418.166L431.806 418.166C427.195 407.319 415.661 410.037 413.628 404.25C411.682 398.71 410.406 392.274 408.907 386.533L398.538 347.074C395.233 334.222 396.113 328.509 382.479 322.554Z"/></svg>