<?xml version="1.0" encoding="utf-8" ?><svg xmlns="http://www.w3.org/2000/svg" xmlns:xlink="http://www.w3.org/1999/xlink" width="1024" height="1024" viewBox="0 0 1024 1024"><path transform="scale(2 2)" d="M167.753 154.806C158.179 145.788 148.042 134.586 138.739 125.049L123.136 109.092C120.897 106.775 117.547 104.03 116.039 101.25C113.755 97.0366 104.287 71.182 110.514 68.2415C113.368 68.4153 136.61 74.5162 139.303 75.9038C144.964 78.8208 186.212 121.95 193.638 128.965C196.405 126.555 203.669 117.314 207.008 117.299C209.675 117.287 225.941 131.471 225.59 135.877C225.352 138.855 212.003 150.825 209.076 153.457C212.639 157.007 218.876 162.728 221.931 166.338C224.33 162.92 224.945 161.553 229.273 161.169C240.178 162.025 232.738 170.522 228.49 174.615C234.684 178.799 244.207 183.457 249.38 187.529C249.326 175.095 248.607 162.859 258.168 153.368C270.383 141.243 290.298 140.841 302.58 153.084C312.951 163.423 311.881 174.138 311.858 187.529C314.573 185.918 318.353 183.148 321.021 181.306L337.78 169.741C334.952 162.916 321.079 127.315 320.32 120.431C318.56 104.467 339.882 99.3021 347.08 112.852L368.551 151.871C381.12 174.313 377.682 176.791 361.912 193.264L338.549 217.516C334.808 221.388 329.435 226.553 326.121 230.584C330.122 233.766 336.834 240.747 340.668 244.566L401.353 304.742C406.946 310.262 401.44 313.997 397.3 318.118L388.257 327.101C383.449 331.885 378.756 336.866 373.809 341.506C368.027 346.929 362.457 337.551 357.932 333.081L338.025 313.269C333.249 308.454 328.354 303.226 323.237 298.826C323.208 311.911 322.764 311.812 327.37 323.991L332.113 336.812C338.485 353.571 344.507 370.847 350.673 387.712C354.093 397.067 347.572 406.553 340.546 412.116C341.258 414.681 344.651 422.721 345.825 425.762C352.186 427.891 373.914 431.211 371.297 439.296C370.703 441.132 369.302 442.06 367.656 442.895L367.362 442.867C359.596 442.191 347.257 436.834 339.538 434.496C336.25 433.5 331.629 418.904 330.53 415.342C314.901 414.39 311.2 406.301 306.184 393.736L299.624 376.852C293.655 361.21 287.538 344.981 281.228 329.503L257.249 389.493C250.759 405.911 249.922 413.217 230.68 415.342C228.745 420.779 226.957 426.575 224.782 431.901C223.08 436.512 199.196 442.096 194.589 442.987C189.162 443.192 187.926 434.505 192.626 432.964C200.082 430.518 208.318 427.76 215.812 425.762C217.314 421.277 218.804 416.504 220.502 412.116C208.975 400.643 208.619 394.165 213.97 379.588L233.691 324.99C237.813 313.365 238.712 312.861 238.703 300.545L238.693 234.589C225.541 221.21 211.239 208.021 198.316 194.354C195.732 191.622 199.29 187.748 201.448 186.284C197.886 183.258 192.115 176.81 188.707 174.615C182.554 179.432 178.231 190.469 170.83 183.916C153.745 166.646 152.567 170.502 167.753 154.806ZM120.679 81.3257C124.455 97.9852 126.517 97.0231 137.859 108.878L162.231 134.308C166.379 138.565 171.158 143.008 175.11 147.311C176.938 145.512 178.764 143.697 180.618 141.924C182.279 140.268 184.396 138.269 185.913 136.533C173.62 124.727 161.799 112.366 149.57 100.463C135.967 87.2221 139.244 86.1133 120.679 81.3257ZM332.892 115.521C332.149 116.066 331.056 116.808 330.841 117.781C329.735 122.799 349.771 165.083 349.134 172.599C348.863 175.793 342.195 179.339 339.887 180.953L327.968 189.264C322.948 192.741 315.216 200.018 308.953 199.692C297.917 219.714 270.693 224.245 256.555 205.824C250.748 198.257 229.825 188.179 220.502 182.037L210.542 191.727C222.006 203.987 239.827 218.251 249.38 230.584L249.38 246.747L249.38 305.76L291.997 305.766C297.529 305.768 307.582 306.098 312.805 305.76L312.794 238.14C312.792 232.898 311.815 229.482 315.73 225.495L350.927 189.494C367.195 172.631 369.771 176.193 357.838 154.335L344.054 129.621C341.667 125.434 337.707 114.932 332.892 115.521ZM207.252 130.427L185.504 152.124C180.464 157.186 174.722 163.246 169.464 167.971C171.329 169.749 173.163 171.523 175.11 173.213C185.811 160.17 200.558 147.792 212.486 135.426C211.52 134.436 208.225 130.975 207.252 130.427ZM280.434 154.806C270.074 154.883 261.61 162.325 260.072 172.553C266.774 176.945 273.099 179.216 281.228 179.221C291.952 178.741 292.843 176.914 301.701 172.553C297.841 162.693 292.059 154.389 280.434 154.806ZM201.448 161.169C199.689 162.835 197.738 164.61 196.065 166.338C197.818 168.171 207.785 179.065 209.076 179.221C210.877 176.084 211.317 175.599 214.038 173.213C212.228 171.384 202.861 161.697 201.448 161.169ZM260.072 184.996C258.525 205.466 285.118 215.054 297.628 198.192C300.923 193.172 301.252 190.919 301.701 184.996C286.573 191.585 275.762 191.253 260.072 184.996ZM323.237 242.643L323.237 283.372C337.601 299.144 354.888 315.419 370.228 330.304C373.565 326.77 376.775 323.535 380.228 320.131L390.575 309.503C376.658 295.054 361.828 280.905 347.666 266.651L331.229 250.175C329.643 248.609 324.9 243.81 323.237 242.643ZM248.172 316.033C245.758 324.016 242.83 331.421 239.957 339.247L224.167 382.065C214.642 407.171 236.311 408.428 242.033 398.443C243.74 395.081 245.393 390.455 246.836 386.866L269.437 330.193C271.087 326.018 273.724 320.126 274.973 316.033L248.172 316.033ZM287.115 316.033C287.908 319.132 290.32 323.862 291.55 326.999L312.707 380.843L316.886 391.887C320.663 402.08 326.217 408.993 337.78 400.861C343.336 390.876 338.915 386.18 335.08 375.915L318.685 331.003C317.028 326.489 314.897 320.219 312.805 316.033C304.989 315.953 294.84 315.788 287.115 316.033Z"/></svg>